# xmcd
#
# Track frame offsets:
#	150
#	18109
#	39927
#	58505
#	82731
#	99762
#	113297
#	133628
#	167845
#	180588
#	194596
#	217041
#
# Disc length: 3192 seconds
#
# Revision: 0
# Processed by: cddbd v1.5.1PL0 Copyright (c) Steve Scherf et al.
# Submitted via: dBpowerAMP V4.0
#
DISCID=8b0c760c
DTITLE=Slim Paddy and the wildcats - Fences
DYEAR=1900
DGENRE=Blues
TTITLE0=Hang on
TTITLE1=Jet lag
TTITLE2=Don't say
TTITLE3=Alligator heart
TTITLE4=Sugar coated love
TTITLE5=That's right
TTITLE6=Ode to jerry
TTITLE7=Sometimes
TTITLE8=Ooo baby
TTITLE9=Frankie's blues
TTITLE10=Mellow done easy
TTITLE11=No more statements
EXTD=french group
EXTT0=
EXTT1=
EXTT2=
EXTT3=
EXTT4=
EXTT5=
EXTT6=
EXTT7=
EXTT8=
EXTT9=
EXTT10=
EXTT11=
PLAYORDER=
